<?xml version="1.0" standalone="no"?>
<!DOCTYPE svg PUBLIC "-//W3C//DTD SVG 20010904//EN"
 "http://www.w3.org/TR/2001/REC-SVG-20010904/DTD/svg10.dtd">
<svg version="1.0" xmlns="http://www.w3.org/2000/svg"
 width="512.000000pt" height="512.000000pt" viewBox="0 0 512.000000 512.000000"
 preserveAspectRatio="xMidYMid meet">
<metadata>
Created by potrace 1.11, written by Peter Selinger 2001-2013
</metadata>
<g transform="translate(0.000000,512.000000) scale(0.100000,-0.100000)"
fill="#000000" stroke="none">
<path d="M1224 5095 c-13 -13 -25 -32 -25 -42 -6 -74 22 -186 57 -235 l24 -32
-27 -15 c-56 -29 -64 -52 -50 -148 8 -58 30 -115 59 -156 11 -16 17 -31 14
-34 -3 -4 -6 -3 -6 1 0 3 -13 0 -30 -9 -47 -24 -55 -77 -28 -179 28 -102 64
-158 154 -233 20 -17 119 -65 155 -76 13 -4 16 -20 15 -94 l-2 -88 -53 -8
c-232 -33 -360 -311 -235 -509 61 -96 138 -144 260 -164 21 -3 42 -8 45 -10 4
-2 10 -30 14 -61 19 -161 88 -329 188 -463 61 -81 169 -184 241 -230 l55 -35
0 -210 c-1 -115 -4 -221 -8 -235 -8 -32 -59 -56 -131 -64 -30 -4 -68 -8 -85
-10 -27 -4 -142 -18 -265 -32 -25 -3 -63 -7 -84 -9 -48 -4 -133 -16 -161 -21
-11 -2 -33 -7 -49 -10 -16 -3 -62 -19 -102 -35 -227 -94 -392 -282 -456 -518
-20 -72 -21 -104 -23 -603 l-2 -528 1877 0 1877 0 -2 523 c-2 528 -3 554 -40
665 -71 208 -241 383 -455 467 -75 29 -136 41 -310 61 -25 3 -83 9 -130 15
-47 5 -103 12 -125 15 -22 2 -56 6 -75 9 -19 2 -62 7 -95 11 -132 15 -135 21
-135 303 l0 209 48 28 c62 37 218 193 271 272 23 35 60 100 81 145 40 83 90
255 90 308 0 32 12 42 54 45 118 7 241 98 285 209 80 203 -56 439 -265 463
-24 2 -45 7 -45 11 -1 3 -2 166 -4 361 -1 195 -5 375 -9 399 -19 111 -89 237
-172 305 -62 52 -168 104 -225 112 -39 5 -55 15 -95 56 -26 27 -67 61 -91 75
-91 53 -85 53 -946 53 l-798 0 -25 -25z"/>
</g>
</svg>
